<svg xmlns="http://www.w3.org/2000/svg" width="139.56" height="140.93"><path d="M69.78 0L34.64 20.5 69.78 41l35.14-20.5z" fill="#006ad5"/><path d="M34.89 20.07l-.18 40.68 35.32 20.18.19-40.68z" fill="#007fff"/><path d="M104.67 20.07L69.35 40.25l.18 40.68 35.33-20.18z" fill="#0059b2"/><path d="M35.14 60L0 80.5 35.14 101l35.14-20.5z" fill="#b40000"/><path d="M104.42 60L69.28 80.5l35.14 20.5 35.14-20.5z" fill="#00bb28"/><path d="M.25 80.07l-.18 40.68 35.32 20.18.18-40.68z" fill="#df0000"/><path d="M70.03 80.07l-35.32 20.18.18 40.68 35.33-20.18z" fill="#8c0000"/><path d="M69.53 80.07l-.18 40.68 35.32 20.18.19-40.68z" fill="#00e82e"/><path d="M139.31 80.07l-35.32 20.18.18 40.68 35.33-20.18z" fill="#008c20"/></svg>